<svg width="311" height="311" viewBox="0 0 311 311" fill="none" xmlns="http://www.w3.org/2000/svg">
<g clip-path="url(#clip0)">
<path d="M16.0698 311.001C11.9732 311.001 7.87656 309.443 4.76405 306.307C-1.4844 300.058 -1.4844 289.928 4.76405 283.679L283.757 4.68633C290.006 -1.56211 300.136 -1.56211 306.384 4.68633C312.633 10.9348 312.633 21.0651 306.384 27.3174L27.3951 306.307C24.2592 309.423 20.1626 311.001 16.0698 311.001Z" fill="black"/>
<path d="M295.082 311.001C290.986 311.001 286.893 309.443 283.777 306.307L4.76405 27.3174C-1.4844 21.0651 -1.4844 10.9348 4.76405 4.68633C11.0125 -1.56211 21.1428 -1.56211 27.3951 4.68633L306.384 283.679C312.633 289.928 312.633 300.058 306.384 306.307C303.248 309.423 299.156 311.001 295.082 311.001Z" fill="black"/>
</g>
<defs>
<clipPath id="clip0">
<rect width="311" height="311" fill="white"/>
</clipPath>
</defs>
</svg>
